<svg xmlns="http://www.w3.org/2000/svg" xmlns:xlink="http://www.w3.org/1999/xlink" xmlns:lucid="lucid" width="721" height="667"><g transform="translate(-1199.5 -399.5)" lucid:page-tab-id="0_0"><path d="M1000 0h1000v1500H1000z" fill="#fff"/><path d="M1480 426a6 6 0 0 1 6-6h148a6 6 0 0 1 6 6v114a6 6 0 0 1-6 6h-148a6 6 0 0 1-6-6z" stroke="#3a414a" fill="#fff"/><use xlink:href="#a" transform="matrix(1,0,0,1,1488,428) translate(17.80246913580247 59.44444444444444)"/><path d="M1480 686a6 6 0 0 1 6-6h148a6 6 0 0 1 6 6v114a6 6 0 0 1-6 6h-148a6 6 0 0 1-6-6z" stroke="#3a414a" fill="#fff"/><use xlink:href="#b" transform="matrix(1,0,0,1,1488,688) translate(54.74691358024691 59.44444444444444)"/><path d="M1220 926a6 6 0 0 1 6-6h148a6 6 0 0 1 6 6v114a6 6 0 0 1-6 6h-148a6 6 0 0 1-6-6z" stroke="#3a414a" fill="#fff"/><use xlink:href="#b" transform="matrix(1,0,0,1,1228,928) translate(54.74691358024691 59.44444444444444)"/><path d="M1480 926a6 6 0 0 1 6-6h148a6 6 0 0 1 6 6v114a6 6 0 0 1-6 6h-148a6 6 0 0 1-6-6z" stroke="#3a414a" fill="#fff"/><use xlink:href="#b" transform="matrix(1,0,0,1,1488,928) translate(54.74691358024691 59.44444444444444)"/><path d="M1740 926a6 6 0 0 1 6-6h148a6 6 0 0 1 6 6v114a6 6 0 0 1-6 6h-148a6 6 0 0 1-6-6z" stroke="#3a414a" fill="#fff"/><use xlink:href="#b" transform="matrix(1,0,0,1,1748,928) translate(54.74691358024691 59.44444444444444)"/><path d="M1560 547v4.9m0 4.88v9.78m0 4.88v9.78m0 4.9v9.77m0 4.88v9.78m0 4.88v9.78m0 4.9v9.77m0 4.88v9.78m0 4.88v9.78m0 4.9V679" stroke="#3a414a" fill="none"/><path d="M1560.5 547h-1v-.5h1zM1560.5 679.5h-1v-.5h1z" stroke="#3a414a" stroke-width=".05" fill="#3a414a"/><path d="M1560 807v5.33m0 5.34v10.66m0 5.34v10.66m0 5.34v10.66m0 5.34v10.66m0 5.34v10.66m0 5.34v10.66m0 5.34V919" stroke="#3a414a" fill="none"/><path d="M1560.5 807h-1v-.5h1zM1560.5 919.5h-1v-.5h1z" stroke="#3a414a" stroke-width=".05" fill="#3a414a"/><path d="M1479 743h-5.15m-5.15 0h-10.3m-5.16 0h-10.3m-5.15 0h-10.32m-5.15 0h-10.3m-5.15 0h-10.3m-5.16 0h-10.3m-5.15 0h-10.3m-5.15 0h-10.3m-5.16 0h-10.3m-5.15 0h-10.3m-5.15 0H1309l-.94.07-.9.22-.88.35-.8.5-.72.6-.6.72-.5.8-.37.88-.23.9-.07.95v5.15m0 5.15v10.3m0 5.16v10.3m0 5.15v10.3m0 5.17v10.3m0 5.15v10.3m0 5.16v10.3m0 5.15v10.3m0 5.15v10.3m0 5.16v10.3m0 5.15v10.3m0 5.15V919" stroke="#3a414a" fill="none"/><path d="M1479.5 743.5h-.5v-1h.5zM1303.5 919.5h-1v-.5h1z" stroke="#3a414a" stroke-width=".05" fill="#3a414a"/><path d="M1641 743h5.15m5.15 0h10.3m5.16 0h10.3m5.15 0h10.32m5.15 0h10.3m5.15 0h10.3m5.16 0h10.3m5.15 0h10.3m5.15 0h10.3m5.16 0h10.3m5.15 0h10.3m5.15 0h5.15l.94.07.9.22.88.35.8.5.72.6.6.72.5.8.37.88.23.9.07.95v5.15m0 5.15v10.3m0 5.16v10.3m0 5.15v10.3m0 5.17v10.3m0 5.15v10.3m0 5.16v10.3m0 5.15v10.3m0 5.15v10.3m0 5.16v10.3m0 5.15v10.3m0 5.15V919" stroke="#3a414a" fill="none"/><path d="M1641 743.5h-.5v-1h.5zM1817.5 919.5h-1v-.5h1z" stroke="#3a414a" stroke-width=".05" fill="#3a414a"/><defs><path fill="#3a414a" d="M212-179c-10-28-35-45-73-45-59 0-87 40-87 99 0 60 29 101 89 101 43 0 62-24 78-52l27 14C228-24 195 4 139 4 59 4 22-46 18-125c-6-104 99-153 187-111 19 9 31 26 39 46" id="c"/><path fill="#3a414a" d="M100-194c62-1 85 37 85 99 1 63-27 99-86 99S16-35 15-95c0-66 28-99 85-99zM99-20c44 1 53-31 53-75 0-43-8-75-51-75s-53 32-53 75 10 74 51 75" id="d"/><path fill="#3a414a" d="M24 0v-261h32V0H24" id="e"/><path fill="#3a414a" d="M100-194c63 0 86 42 84 106H49c0 40 14 67 53 68 26 1 43-12 49-29l28 8c-11 28-37 45-77 45C44 4 14-33 15-96c1-61 26-98 85-98zm52 81c6-60-76-77-97-28-3 7-6 17-6 28h103" id="f"/><path fill="#3a414a" d="M96-169c-40 0-48 33-48 73s9 75 48 75c24 0 41-14 43-38l32 2c-6 37-31 61-74 61-59 0-76-41-82-99-10-93 101-131 147-64 4 7 5 14 7 22l-32 3c-4-21-16-35-41-35" id="g"/><path fill="#3a414a" d="M59-47c-2 24 18 29 38 22v24C64 9 27 4 27-40v-127H5v-23h24l9-43h21v43h35v23H59v120" id="h"/><path fill="#3a414a" d="M24-231v-30h32v30H24zM24 0v-190h32V0H24" id="i"/><path fill="#3a414a" d="M117-194c89-4 53 116 60 194h-32v-121c0-31-8-49-39-48C34-167 62-67 57 0H25l-1-190h30c1 10-1 24 2 32 11-22 29-35 61-36" id="j"/><path fill="#3a414a" d="M135-143c-3-34-86-38-87 0 15 53 115 12 119 90S17 21 10-45l28-5c4 36 97 45 98 0-10-56-113-15-118-90-4-57 82-63 122-42 12 7 21 19 24 35" id="k"/><g id="a"><use transform="matrix(0.06172839506172839,0,0,0.06172839506172839,0,0)" xlink:href="#c"/><use transform="matrix(0.06172839506172839,0,0,0.06172839506172839,15.987654320987653,0)" xlink:href="#d"/><use transform="matrix(0.06172839506172839,0,0,0.06172839506172839,28.333333333333332,0)" xlink:href="#e"/><use transform="matrix(0.06172839506172839,0,0,0.06172839506172839,33.20987654320987,0)" xlink:href="#e"/><use transform="matrix(0.06172839506172839,0,0,0.06172839506172839,38.08641975308642,0)" xlink:href="#f"/><use transform="matrix(0.06172839506172839,0,0,0.06172839506172839,50.432098765432094,0)" xlink:href="#g"/><use transform="matrix(0.06172839506172839,0,0,0.06172839506172839,61.5432098765432,0)" xlink:href="#h"/><use transform="matrix(0.06172839506172839,0,0,0.06172839506172839,67.71604938271604,0)" xlink:href="#i"/><use transform="matrix(0.06172839506172839,0,0,0.06172839506172839,72.59259259259258,0)" xlink:href="#d"/><use transform="matrix(0.06172839506172839,0,0,0.06172839506172839,84.93827160493827,0)" xlink:href="#j"/><use transform="matrix(0.06172839506172839,0,0,0.06172839506172839,97.28395061728395,0)" xlink:href="#k"/></g><path fill="#3a414a" d="M30 0v-248h33v221h125V0H30" id="l"/><g id="b"><use transform="matrix(0.06172839506172839,0,0,0.06172839506172839,0,0)" xlink:href="#l"/><use transform="matrix(0.06172839506172839,0,0,0.06172839506172839,12.345679012345679,0)" xlink:href="#i"/><use transform="matrix(0.06172839506172839,0,0,0.06172839506172839,17.22222222222222,0)" xlink:href="#k"/><use transform="matrix(0.06172839506172839,0,0,0.06172839506172839,28.333333333333332,0)" xlink:href="#h"/></g></defs></g></svg>